<svg class="w-6 h-6" width="24" height="24" viewBox="0 0 24 24" fill="none" xmlns="http://www.w3.org/2000/svg"><path d="M21 5C21 4.44772 20.5523 4 20 4H4C3.44772 4 3 4.44772 3 5V15C3 15.5523 3.44772 16 4 16H20C20.5523 16 21 15.5523 21 15V5ZM23 15C23 16.6569 21.6569 18 20 18H4C2.34315 18 1 16.6569 1 15V5C1 3.34315 2.34315 2 4 2H20C21.6569 2 23 3.34315 23 5V15Z" fill="#686583" style="fill-opacity:1;"/><path d="M16 20C16.5523 20 17 20.4477 17 21C17 21.5523 16.5523 22 16 22H8C7.44772 22 7 21.5523 7 21C7 20.4477 7.44772 20 8 20H16Z" fill="#686583" style="fill-opacity:1;"/><path d="M11 21V17C11 16.4477 11.4477 16 12 16C12.5523 16 13 16.4477 13 17V21C13 21.5523 12.5523 22 12 22C11.4477 22 11 21.5523 11 21Z" fill="#686583" style="fill-opacity:1;"/></svg>