<svg class="w-6 h-6" width="24" height="24" viewBox="0 0 24 24" fill="none" xmlns="http://www.w3.org/2000/svg"><path d="M18.9912 11.6533C18.9055 9.92303 18.181 8.28061 16.9502 7.0498C15.6374 5.73705 13.8565 5 12 5C10.1435 5 8.36256 5.73705 7.0498 7.0498C5.73705 8.36256 5 10.1435 5 12L5.00879 12.3467C5.09452 14.077 5.819 15.7194 7.0498 16.9502C8.36256 18.2629 10.1435 19 12 19L12.3467 18.9912C14.077 18.9055 15.7194 18.181 16.9502 16.9502C18.2629 15.6374 19 13.8565 19 12L18.9912 11.6533ZM20.9893 12.4463C20.8789 14.6708 19.9466 16.7819 18.3643 18.3643C16.7819 19.9466 14.6708 20.8789 12.4463 20.9893L12 21C9.61305 21 7.32357 20.0521 5.63574 18.3643C3.94791 16.6764 3 14.3869 3 12C3 9.61305 3.94791 7.32357 5.63574 5.63574C7.32357 3.94791 9.61305 3 12 3C14.3869 3 16.6764 3.94791 18.3643 5.63574C20.0521 7.32357 21 9.61305 21 12L20.9893 12.4463Z" fill="#686583" style="fill-opacity:1;"/><path d="M13 12C13 11.7348 12.8946 11.4805 12.707 11.293C12.5195 11.1054 12.2652 11 12 11C11.7348 11 11.4805 11.1054 11.293 11.293C11.1054 11.4805 11 11.7348 11 12C11 12.2652 11.1054 12.5195 11.293 12.707C11.4805 12.8946 11.7348 13 12 13C12.2652 13 12.5195 12.8946 12.707 12.707C12.8946 12.5195 13 12.2652 13 12ZM15 12C15 12.7957 14.6837 13.5585 14.1211 14.1211C13.5585 14.6837 12.7957 15 12 15C11.2043 15 10.4415 14.6837 9.87891 14.1211C9.3163 13.5585 9 12.7957 9 12C9 11.2043 9.3163 10.4415 9.87891 9.87891C10.4415 9.3163 11.2043 9 12 9C12.7957 9 13.5585 9.3163 14.1211 9.87891C14.6837 10.4415 15 11.2043 15 12Z" fill="#686583" style="fill-opacity:1;"/><path d="M11 4V2C11 1.44772 11.4477 1 12 1C12.5523 1 13 1.44772 13 2V4C13 4.55228 12.5523 5 12 5C11.4477 5 11 4.55228 11 4Z" fill="#686583" style="fill-opacity:1;"/><path d="M11 22V20C11 19.4477 11.4477 19 12 19C12.5523 19 13 19.4477 13 20V22C13 22.5523 12.5523 23 12 23C11.4477 23 11 22.5523 11 22Z" fill="#686583" style="fill-opacity:1;"/><path d="M15.5 18.0638C15.9484 17.805 16.5141 17.9329 16.8106 18.3441L16.8662 18.43L17.8662 20.1595L17.9121 20.2503C18.1204 20.7126 17.9484 21.2665 17.5 21.5257C17.0517 21.7846 16.486 21.6574 16.1895 21.2464L16.1338 21.1605L15.1338 19.43L15.0879 19.3392C14.8799 18.877 15.0517 18.3229 15.5 18.0638Z" fill="#686583" style="fill-opacity:1;"/><path d="M6.5 2.47378C6.94842 2.21495 7.51411 2.34294 7.81055 2.75406L7.86621 2.83999L11.8662 9.76968L11.9131 9.86148C12.1205 10.3237 11.9482 10.8771 11.5 11.1359C11.0515 11.3948 10.4858 11.2669 10.1895 10.8556L10.1338 10.7697L6.13379 3.83999L6.08691 3.74917C5.87905 3.28681 6.05152 2.73266 6.5 2.47378Z" fill="#686583" style="fill-opacity:1;"/><path d="M18.0638 15.5C18.3229 15.0517 18.877 14.8799 19.3392 15.0879L19.43 15.1338L21.1605 16.1338L21.2464 16.1895C21.6574 16.486 21.7846 17.0517 21.5257 17.5C21.2665 17.9484 20.7126 18.1204 20.2503 17.9121L20.1595 17.8662L18.43 16.8662L18.3441 16.8106C17.9329 16.5141 17.805 15.9484 18.0638 15.5Z" fill="#686583" style="fill-opacity:1;"/><path d="M2.47379 6.50001C2.7329 6.05174 3.28698 5.87988 3.74918 6.0879L3.84 6.13379L5.57047 7.13379L5.65641 7.18946C6.0674 7.48604 6.19462 8.05172 5.9357 8.50001C5.67651 8.94841 5.1226 9.12043 4.66031 8.91212L4.56949 8.86622L2.84 7.86622L2.75406 7.81055C2.3429 7.51408 2.21498 6.94837 2.47379 6.50001Z" fill="#686583" style="fill-opacity:1;"/><path d="M22 11C22.5523 11 23 11.4477 23 12C23 12.5523 22.5523 13 22 13H14C13.4477 13 13 12.5523 13 12C13 11.4477 13.4477 11 14 11H22Z" fill="#686583" style="fill-opacity:1;"/><path d="M4 11C4.55228 11 5 11.4477 5 12C5 12.5523 4.55228 13 4 13H2C1.44772 13 1 12.5523 1 12C1 11.4477 1.44772 11 2 11H4Z" fill="#686583" style="fill-opacity:1;"/><path d="M20.2503 6.0879C20.7126 5.87959 21.2665 6.0516 21.5257 6.50001C21.8018 6.97811 21.6385 7.58989 21.1605 7.86622L19.43 8.86622C18.9519 9.14218 18.3401 8.97798 18.0638 8.50001C17.7878 8.02193 17.952 7.41008 18.43 7.13379L20.1595 6.13379L20.2503 6.0879Z" fill="#686583" style="fill-opacity:1;"/><path d="M4.66031 15.0879C5.1226 14.8796 5.67651 15.0516 5.9357 15.5C6.21185 15.9781 6.04852 16.5899 5.57047 16.8662L3.84 17.8662C3.36193 18.1422 2.75008 17.978 2.47379 17.5C2.19783 17.0219 2.36203 16.4101 2.84 16.1338L4.56949 15.1338L4.66031 15.0879Z" fill="#686583" style="fill-opacity:1;"/><path d="M16.1894 2.75406C16.4859 2.3429 17.0516 2.21498 17.5 2.47379C17.9483 2.7329 18.1201 3.28698 17.9121 3.74918L17.8662 3.84L16.8662 5.57047L16.8105 5.65641C16.5139 6.0674 15.9483 6.19462 15.5 5.9357C15.0219 5.65934 14.8575 5.04762 15.1338 4.56949L16.1338 2.84L16.1894 2.75406Z" fill="#686583" style="fill-opacity:1;"/><path d="M10.1895 13.1441C10.4859 12.733 11.0516 12.605 11.5 12.8638C11.9485 13.1227 12.121 13.6768 11.9131 14.1392L11.8662 14.23L7.86622 21.1597C7.59013 21.638 6.97833 21.802 6.50001 21.5259C6.0218 21.2498 5.85774 20.638 6.13379 20.1597L10.1338 13.23L10.1895 13.1441Z" fill="#686583" style="fill-opacity:1;"/></svg>