<svg class="w-6 h-6" width="24" height="24" viewBox="0 0 24 24" fill="none" xmlns="http://www.w3.org/2000/svg"><path d="M4.76418 4.45405C9.5631 3.76011 14.4369 3.76011 19.2359 4.45405L20.2632 4.61323L20.3648 4.63569C20.8668 4.7734 21.3248 5.03905 21.6929 5.40717C22.0151 5.72942 22.2586 6.12059 22.4068 6.54975L22.4644 6.7353L22.478 6.79292L22.606 7.43745C23.2028 10.6689 23.1601 13.9881 22.478 17.207L22.4644 17.2646C22.3267 17.7667 22.061 18.2246 21.6929 18.5927C21.3707 18.9149 20.9794 19.1584 20.5503 19.3066L20.3648 19.3642L20.2632 19.3867C15.1337 20.2366 9.90593 20.2895 4.76418 19.5458L3.73683 19.3867C3.70283 19.381 3.66851 19.3733 3.63527 19.3642C3.13323 19.2265 2.67526 18.9608 2.30715 18.5927C1.98492 18.2705 1.74145 17.8793 1.59328 17.4501L1.53566 17.2646C1.53048 17.2457 1.52605 17.2261 1.52199 17.207C0.794509 13.7737 0.794509 10.2262 1.52199 6.79292L1.53566 6.7353L1.59328 6.54975C1.74145 6.12059 1.98492 5.72942 2.30715 5.40717C2.67526 5.03906 3.13323 4.7734 3.63527 4.63569L3.73683 4.61323L4.76418 4.45405ZM19.8706 6.57612C14.6581 5.71994 9.34094 5.71984 4.12844 6.57612C3.9755 6.62434 3.8359 6.70766 3.72219 6.82124C3.60347 6.93995 3.51635 7.08704 3.46926 7.24799C2.8112 10.3814 2.81133 13.6175 3.46926 16.7509C3.51629 16.9122 3.60325 17.0597 3.72219 17.1787C3.83561 17.2919 3.97499 17.3745 4.12746 17.4228C9.34035 18.2794 14.6577 18.2792 19.8706 17.4228C20.0238 17.3746 20.164 17.2924 20.2778 17.1787C20.3967 17.0598 20.4828 16.9121 20.5298 16.7509C21.1878 13.6174 21.1879 10.3815 20.5298 7.24799C20.4827 7.08714 20.3965 6.93988 20.2778 6.82124C20.1639 6.70744 20.0239 6.62429 19.8706 6.57612Z" fill="#686583" style="fill-opacity:1;"/><path d="M9.50684 8.12993C9.82034 7.95242 10.2057 7.95726 10.5146 8.14262L15.5146 11.1426L15.6221 11.2168C15.8591 11.405 16 11.6927 16 12C16 12.3073 15.8591 12.5951 15.6221 12.7832L15.5146 12.8575L10.5146 15.8575C10.2057 16.0428 9.82034 16.0477 9.50684 15.8702C9.19356 15.6926 9 15.3602 9 15V9.00005L9.00879 8.86626C9.05021 8.55908 9.2328 8.28525 9.50684 8.12993ZM11 13.2334L13.0557 12L11 10.7657V13.2334Z" fill="#686583" style="fill-opacity:1;"/></svg>