<svg class="w-6 h-6" width="24" height="24" viewBox="0 0 24 24" fill="none" xmlns="http://www.w3.org/2000/svg"><path d="M18.9998 7C18.9998 6.73478 18.8943 6.48051 18.7068 6.29297C18.5426 6.12884 18.3274 6.02752 18.0984 6.00488L17.9998 6H5.99977C5.73465 6.00007 5.48021 6.10549 5.29274 6.29297C5.10529 6.48049 4.99977 6.73485 4.99977 7V15H18.9998V7ZM3.61403 18.999L3.61305 19H20.3875L20.3865 18.999L19.3836 17H4.61696L3.61403 18.999ZM20.9998 15.7637L22.1726 18.0996L22.2273 18.2158C22.3445 18.4907 22.3988 18.7893 22.3855 19.0889C22.3703 19.431 22.2673 19.7637 22.0867 20.0547C21.906 20.3457 21.6532 20.5855 21.3533 20.751C21.0552 20.9154 20.72 21.0003 20.3797 20.999V21H3.61989V20.999C3.27977 21.0002 2.94511 20.9153 2.64723 20.751C2.34724 20.5855 2.09453 20.3458 1.91383 20.0547C1.73318 19.7636 1.63022 19.4311 1.61501 19.0889C1.59982 18.7466 1.67273 18.4056 1.82692 18.0996L2.99977 15.7637V7C2.99977 6.20441 3.31615 5.4415 3.87868 4.87891C4.44122 4.31636 5.20422 4.00007 5.99977 4H17.9998L18.2966 4.01465C18.9834 4.08286 19.6296 4.38665 20.1218 4.87891C20.6842 5.44148 20.9998 6.20452 20.9998 7V15.7637Z" fill="#686583" style="fill-opacity:1;"/></svg>